<?xml version="1.0" standalone="no"?>
<!DOCTYPE svg PUBLIC "-//W3C//DTD SVG 20010904//EN"
 "http://www.w3.org/TR/2001/REC-SVG-20010904/DTD/svg10.dtd">
<svg version="1.0" xmlns="http://www.w3.org/2000/svg"
 width="1280.000000pt" height="853.000000pt" viewBox="0 0 1280.000000 853.000000"
 preserveAspectRatio="xMidYMid meet">
<g transform="translate(0.000000,853.000000) scale(0.100000,-0.100000)"
fill="#000000" stroke="none">
<path d="M202 8469 c87 -158 279 -364 438 -470 170 -113 360 -190 550 -226
141 -26 401 -23 537 5 386 83 712 305 925 631 37 58 68 109 68 113 0 4 -134 8
-298 8 l-298 0 -35 -36 c-86 -90 -257 -185 -406 -226 -117 -32 -355 -32 -472
0 -151 41 -288 115 -396 214 l-53 48 -297 0 -296 0 33 -61z"/>
<path d="M4210 8480 c0 -319 312 -544 613 -441 118 41 206 120 264 238 32 65
37 86 41 164 l4 89 -461 0 -461 0 0 -50z"/>
<path d="M6455 8503 c3 -15 29 -73 56 -128 197 -396 575 -683 1016 -772 138
-28 425 -25 562 5 480 107 867 432 1041 872 l20 50 -269 0 -268 0 -35 -52
c-115 -173 -318 -318 -528 -378 -96 -28 -299 -38 -406 -20 -247 39 -502 201
-624 394 l-35 55 -269 1 -268 0 7 -27z"/>
<path d="M9940 8522 c0 -17 38 -43 71 -48 35 -5 99 25 99 46 0 6 -34 10 -85
10 -47 0 -85 -4 -85 -8z"/>
<path d="M11307 8478 c32 -367 365 -637 725 -588 305 42 526 270 563 583 l7
57 -105 0 -105 0 -12 -67 c-32 -189 -179 -333 -367 -362 -231 -36 -470 143
-490 368 l-6 61 -107 0 -107 0 4 -52z"/>
<path d="M10081 8325 c-56 -18 -138 -74 -174 -120 -16 -20 -40 -61 -55 -93
-23 -49 -27 -70 -27 -152 0 -87 3 -101 32 -161 143 -289 546 -291 691 -3 92
183 12 412 -179 510 -46 24 -68 28 -149 31 -63 2 -110 -2 -139 -12z m236 -127
c95 -45 162 -165 148 -266 -13 -99 -95 -197 -183 -222 -165 -45 -324 62 -339
230 -19 202 190 346 374 258z"/>
<path d="M9374 8261 c-23 -10 -54 -36 -70 -57 -26 -33 -29 -46 -29 -109 0 -63
3 -76 29 -109 50 -66 145 -93 219 -62 57 23 117 111 117 171 0 30 -24 88 -47
116 -55 64 -143 85 -219 50z"/>
<path d="M3742 8118 c-60 -13 -159 -84 -199 -142 -47 -69 -66 -143 -61 -235 8
-130 77 -233 200 -298 48 -25 62 -28 158 -28 101 0 108 1 168 34 114 62 182
167 190 296 16 249 -205 429 -456 373z"/>
<path d="M5255 8030 c-257 -34 -474 -229 -540 -485 -17 -69 -20 -221 -4 -297
6 -29 30 -94 54 -144 131 -272 433 -413 735 -342 25 6 83 28 129 50 152 72
286 231 335 398 93 316 -84 667 -396 784 -56 21 -208 49 -243 45 -5 -1 -37 -5
-70 -9z m277 -253 c274 -135 329 -496 108 -700 -71 -66 -144 -102 -234 -117
-185 -29 -373 71 -456 245 -89 185 -26 423 141 537 90 62 148 79 265 75 93 -2
106 -5 176 -40z"/>
<path d="M6358 7881 c-115 -37 -217 -125 -270 -233 -139 -283 37 -616 347
-661 202 -29 394 74 483 260 62 131 56 300 -15 422 -59 101 -155 178 -264 212
-79 25 -203 24 -281 0z"/>
<path d="M2120 7834 c-389 -59 -693 -275 -860 -613 -78 -156 -112 -306 -112
-491 0 -612 489 -1103 1102 -1103 318 -1 584 113 806 345 124 130 199 256 253
423 82 254 64 562 -47 798 -157 336 -462 569 -821 631 -85 14 -255 19 -321 10z
m315 -389 c33 -8 103 -36 155 -62 79 -38 109 -61 181 -133 75 -74 94 -100 137
-191 65 -132 87 -236 79 -364 -8 -115 -27 -190 -77 -290 -74 -150 -186 -260
-345 -336 -354 -171 -793 -19 -967 334 -54 108 -69 170 -75 297 -5 97 -2 129
16 200 86 346 398 582 746 565 50 -2 117 -11 150 -20z"/>
<path d="M11002 7826 c-444 -85 -772 -389 -890 -824 -23 -87 -26 -114 -25
-272 0 -157 3 -185 26 -273 105 -393 411 -698 799 -797 506 -130 1034 111
1264 575 118 241 149 478 94 735 -47 218 -151 402 -318 562 -140 134 -306 227
-489 274 -123 32 -347 41 -461 20z m373 -382 c202 -53 373 -194 470 -386 60
-121 79 -210 73 -356 -9 -203 -71 -345 -213 -487 -93 -92 -160 -135 -282 -179
-83 -29 -96 -31 -233 -31 -163 0 -222 14 -355 83 -84 44 -233 187 -283 274
-71 120 -110 290 -98 424 31 346 276 611 624 674 65 12 225 4 297 -16z"/>
<path d="M3158 7805 c-85 -47 -51 -185 45 -185 43 0 92 38 100 77 6 31 -12 81
-36 101 -24 20 -79 24 -109 7z"/>
<path d="M285 7663 c-97 -51 -131 -153 -84 -251 52 -107 191 -132 284 -50 96
84 76 242 -37 297 -52 25 -121 27 -163 4z"/>
<path d="M954 7639 c-45 -13 -100 -78 -109 -128 -5 -33 -2 -51 17 -89 31 -63
76 -92 142 -92 144 0 213 163 113 268 -44 46 -99 60 -163 41z m119 -41 c50
-26 72 -120 42 -178 -29 -56 -113 -77 -175 -45 -48 25 -75 92 -59 148 21 79
115 115 192 75z"/>
<path d="M9110 7521 c-87 -19 -155 -75 -193 -160 -15 -35 -18 -59 -15 -115 5
-80 22 -120 75 -172 52 -52 105 -74 183 -74 110 0 206 62 248 159 21 50 21
146 -1 203 -20 51 -89 121 -140 143 -43 18 -114 25 -157 16z"/>
<path d="M12729 7360 c-271 -140 -327 -514 -109 -731 50 -50 141 -109 170
-109 7 0 10 142 10 435 0 239 -3 435 -7 435 -5 -1 -33 -14 -64 -30z"/>
<path d="M7635 7321 c-37 -16 -60 -51 -60 -93 0 -53 47 -98 101 -98 104 0 130
155 32 189 -36 13 -45 13 -73 2z"/>
<path d="M3514 7300 c-65 -27 -84 -112 -35 -161 74 -73 196 0 164 97 -16 49
-84 83 -129 64z"/>
<path d="M8191 7254 c-158 -42 -284 -170 -326 -329 -76 -293 142 -575 444
-575 135 0 252 50 339 144 90 98 126 200 120 340 -3 80 -8 101 -41 169 -96
203 -321 309 -536 251z"/>
<path d="M4330 7242 c-141 -71 -99 -284 60 -300 95 -9 170 62 170 160 0 118
-124 194 -230 140z m141 -35 c60 -41 77 -113 39 -174 -58 -96 -198 -73 -231
38 -9 30 -8 43 8 81 34 74 118 100 184 55z"/>
<path d="M526 7165 c-82 -29 -147 -103 -167 -189 -44 -196 139 -369 332 -312
186 54 250 285 120 429 -70 78 -187 107 -285 72z"/>
<path d="M7088 7067 c-92 -26 -169 -109 -188 -203 -36 -172 90 -326 265 -326
235 0 354 268 200 450 -59 70 -182 105 -277 79z m177 -102 c129 -75 111 -282
-28 -334 -40 -16 -123 -14 -156 3 -69 36 -120 132 -106 199 29 139 169 203
290 132z"/>
<path d="M9610 6959 c-90 -38 -129 -153 -77 -230 70 -104 197 -106 271 -6 16
21 21 43 21 87 0 63 -16 95 -67 133 -31 23 -111 32 -148 16z m119 -37 c38 -20
71 -73 71 -112 0 -64 -67 -130 -133 -130 -97 0 -158 113 -107 198 35 58 108
77 169 44z"/>
<path d="M6148 6897 c-110 -36 -182 -136 -182 -251 1 -104 53 -189 148 -239
58 -31 174 -31 232 0 54 29 117 101 132 151 17 55 15 146 -3 190 -20 47 -79
108 -130 134 -48 25 -146 32 -197 15z"/>
<path d="M4791 6639 c-103 -41 -151 -161 -102 -257 23 -46 46 -67 94 -87 50
-21 103 -19 152 5 50 24 81 64 97 124 35 133 -113 266 -241 215z"/>
<path d="M3857 6550 c-212 -54 -341 -275 -281 -481 33 -112 101 -190 214 -243
58 -27 75 -31 155 -31 80 0 97 4 157 32 78 37 147 101 182 171 125 248 -39
539 -314 557 -41 2 -92 0 -113 -5z m213 -146 c89 -49 134 -125 134 -229 0 -60
-4 -78 -30 -125 -34 -62 -100 -113 -167 -131 -124 -33 -270 46 -312 170 -77
227 164 430 375 315z"/>
<path d="M885 6536 c-94 -42 -124 -169 -58 -246 74 -88 194 -79 260 19 45 67
24 160 -49 214 -34 25 -113 32 -153 13z m120 -30 c68 -29 95 -118 55 -183 -53
-88 -187 -79 -227 15 -27 65 0 141 60 167 41 18 70 18 112 1z"/>
<path d="M6812 6504 c-98 -50 -110 -199 -20 -267 48 -37 104 -44 160 -19 109
48 130 178 43 262 -30 29 -43 34 -92 37 -40 3 -68 -1 -91 -13z m146 -34 c66
-41 79 -136 25 -192 -43 -44 -90 -55 -145 -30 -74 33 -100 117 -55 183 41 61
113 77 175 39z"/>
<path d="M9334 6508 c-236 -24 -444 -191 -532 -426 -19 -52 -26 -92 -30 -182
-5 -138 9 -206 68 -327 72 -147 206 -261 375 -319 66 -22 98 -27 185 -28 125
-1 187 13 300 66 169 81 306 258 346 448 19 88 14 225 -12 310 -39 134 -131
261 -248 345 -133 94 -279 131 -452 113z m268 -251 c274 -135 329 -490 109
-701 -277 -264 -731 -69 -731 314 0 183 110 341 284 407 52 20 76 23 162 20
94 -2 106 -5 176 -40z"/>
<path d="M183 6245 c-34 -8 -90 -26 -123 -41 l-60 -27 0 -129 c0 -101 3 -127
13 -122 6 5 31 23 54 40 207 157 521 77 640 -163 32 -65 37 -86 41 -162 7
-136 -31 -240 -118 -330 -153 -157 -402 -175 -577 -41 l-53 40 0 -133 0 -133
69 -27 c99 -38 144 -46 247 -47 186 0 320 55 455 190 95 94 145 180 175 299
24 98 16 274 -18 368 -108 303 -434 486 -745 418z"/>
<path d="M12434 6241 c-61 -28 -89 -73 -89 -143 0 -63 19 -97 75 -135 63 -43
167 -23 212 40 34 47 37 132 6 176 -51 75 -127 98 -204 62z m121 -25 c79 -33
99 -146 37 -208 -63 -63 -175 -42 -208 39 -27 65 4 140 70 169 40 17 59 17
101 0z"/>
<path d="M7245 6192 c-65 -42 -95 -93 -95 -162 0 -102 78 -181 178 -181 84 -1
139 33 173 106 36 78 13 168 -56 221 -50 38 -153 46 -200 16z"/>
<path d="M5755 6145 c-459 -86 -836 -366 -1039 -772 -412 -823 41 -1812 933
-2037 655 -165 1342 153 1637 759 102 209 134 342 141 587 4 140 2 198 -12
280 -47 285 -177 544 -378 754 -197 207 -414 333 -697 406 -105 28 -132 31
-310 34 -143 3 -216 -1 -275 -11z m464 -495 c473 -113 790 -580 717 -1056 -48
-315 -238 -576 -521 -714 -124 -61 -230 -89 -361 -97 -562 -33 -1028 427
-1001 987 7 146 33 248 96 375 135 271 394 469 676 514 39 6 81 13 95 15 50 9
219 -5 299 -24z"/>
<path d="M7943 6066 c-96 -31 -187 -119 -223 -214 -18 -47 -21 -73 -18 -147 3
-79 8 -98 38 -153 39 -74 92 -124 170 -161 46 -21 69 -26 145 -26 78 0 98 4
151 28 77 36 145 104 181 182 24 52 28 72 28 150 -1 78 -5 98 -30 149 -36 76
-100 140 -173 174 -68 32 -199 41 -269 18z"/>
<path d="M4580 6019 c-65 -26 -81 -110 -31 -160 72 -72 192 1 161 97 -18 54
-79 84 -130 63z"/>
<path d="M1224 5870 c-45 -10 -81 -40 -104 -86 -25 -50 -25 -87 -1 -140 36
-79 133 -112 211 -72 61 31 90 77 90 143 0 105 -93 178 -196 155z m122 -63
c72 -65 52 -175 -37 -211 -135 -54 -240 124 -128 219 24 19 42 25 80 25 42 0
55 -5 85 -33z"/>
<path d="M12695 5779 c-314 -180 -547 -463 -659 -799 -54 -161 -70 -269 -69
-460 0 -244 40 -414 149 -635 95 -193 238 -365 415 -499 92 -70 234 -156 258
-156 8 0 11 79 11 281 l0 280 -54 50 c-107 98 -209 263 -254 410 -101 331 -11
694 232 942 31 31 61 57 66 57 6 0 10 108 10 290 0 160 -4 290 -8 290 -4 0
-48 -23 -97 -51z"/>
<path d="M10279 5742 c-73 -66 -8 -192 87 -168 75 19 100 112 45 167 -40 39
-89 40 -132 1z"/>
<path d="M11818 5551 c-27 -24 -33 -36 -33 -71 0 -35 6 -47 34 -72 29 -26 39
-30 75 -25 52 7 86 44 86 93 0 46 -14 70 -50 89 -43 22 -76 18 -112 -14z"/>
<path d="M1708 5449 c-237 -30 -439 -194 -526 -427 -19 -50 -26 -93 -30 -175
-6 -137 8 -208 63 -323 76 -158 206 -270 380 -330 66 -22 98 -27 185 -28 125
-1 187 13 300 66 69 33 100 56 165 122 161 161 224 363 181 576 -68 338 -377
562 -718 519z m274 -252 c267 -131 327 -472 123 -686 -211 -222 -572 -163
-705 114 -87 180 -29 413 131 531 87 64 157 85 275 81 94 -2 106 -5 176 -40z"/>
<path d="M4085 5434 c-45 -23 -66 -45 -86 -89 -23 -49 -24 -94 -4 -143 32 -75
90 -115 170 -115 135 0 222 136 166 258 -21 46 -54 79 -94 94 -41 16 -117 13
-152 -5z"/>
<path d="M10332 5424 c-136 -81 -103 -294 52 -333 120 -30 226 54 226 180 0
143 -153 228 -278 153z"/>
<path d="M2720 5384 c-74 -32 -113 -90 -113 -169 0 -135 136 -222 258 -166 72
33 105 86 105 166 0 80 -33 133 -105 166 -48 22 -98 23 -145 3z"/>
<path d="M11149 5347 c-266 -76 -355 -404 -163 -603 65 -67 139 -98 244 -102
109 -5 178 19 253 88 124 113 157 280 85 429 -30 63 -107 137 -173 167 -67 31
-178 40 -246 21z"/>
<path d="M8595 5225 c-130 -46 -165 -211 -64 -307 114 -109 308 -24 309 135 0
78 -60 155 -137 176 -48 14 -59 13 -108 -4z"/>
<path d="M8995 5076 c-37 -16 -82 -68 -91 -102 -10 -41 2 -110 24 -142 45 -62
150 -82 212 -39 56 38 75 72 75 135 0 70 -28 115 -89 143 -48 22 -89 23 -131
5z m132 -41 c30 -20 63 -73 63 -103 0 -69 -62 -132 -130 -132 -47 0 -80 18
-107 59 -77 114 59 251 174 176z"/>
<path d="M3347 5066 c-185 -69 -246 -288 -121 -434 158 -185 473 -74 474 169
0 110 -47 193 -140 243 -63 34 -155 44 -213 22z m158 -85 c47 -22 89 -64 104
-104 23 -60 6 -153 -37 -200 -76 -84 -236 -71 -299 24 -103 157 63 358 232
280z"/>
<path d="M9913 5043 c-35 -7 -73 -59 -73 -100 0 -50 45 -93 97 -93 50 0 80 22
94 69 15 50 -8 97 -56 117 -19 8 -36 13 -37 13 -2 -1 -13 -4 -25 -6z"/>
<path d="M7868 4850 c-53 -16 -97 -51 -117 -94 -63 -129 21 -266 164 -266 120
0 207 113 176 228 -13 47 -51 96 -90 116 -36 19 -100 26 -133 16z"/>
<path d="M9382 4811 c-171 -59 -229 -270 -116 -418 82 -107 260 -123 374 -33
85 67 117 213 69 315 -29 62 -96 120 -160 139 -67 20 -101 20 -167 -3z"/>
<path d="M10339 4785 c-56 -18 -133 -84 -160 -137 -89 -174 41 -388 235 -388
81 0 129 17 183 64 142 125 119 350 -45 439 -62 34 -148 43 -213 22z m134 -76
c47 -13 106 -63 123 -106 33 -78 6 -177 -62 -230 -29 -21 -50 -28 -100 -31
-55 -4 -70 -1 -108 22 -115 67 -127 231 -23 310 57 44 105 54 170 35z"/>
<path d="M2604 4779 c-27 -14 -54 -60 -54 -94 0 -36 59 -95 94 -95 57 0 106
46 106 99 0 73 -80 122 -146 90z"/>
<path d="M170 4748 c-61 -31 -90 -77 -90 -142 0 -145 163 -213 268 -113 38 36
56 92 46 144 -9 47 -66 110 -112 123 -52 14 -62 13 -112 -12z m147 -44 c71
-53 61 -169 -18 -210 -61 -31 -146 -9 -174 46 -30 58 -11 145 37 171 59 32
106 29 155 -7z"/>
<path d="M687 4669 c-93 -15 -161 -117 -143 -213 8 -41 41 -92 79 -120 41 -30
163 -30 204 0 164 121 61 367 -140 333z"/>
<path d="M8398 4627 c-158 -45 -241 -232 -167 -378 50 -100 131 -149 243 -149
84 0 136 21 191 75 100 101 105 261 10 373 -59 70 -182 105 -277 79z m160 -93
c120 -60 143 -214 45 -306 -37 -35 -73 -48 -134 -48 -60 0 -95 17 -137 64 -90
103 -48 258 83 304 49 17 88 13 143 -14z"/>
<path d="M9003 4545 c-99 -43 -71 -185 36 -185 96 0 138 124 59 173 -37 24
-61 27 -95 12z"/>
<path d="M2558 4284 c-34 -18 -48 -43 -48 -84 0 -42 15 -67 50 -85 43 -22 76
-18 112 14 27 24 33 36 33 71 0 35 -6 47 -33 71 -36 32 -72 36 -114 13z"/>
<path d="M2978 4261 c-81 -26 -135 -61 -196 -125 -171 -181 -170 -454 3 -635
89 -93 201 -141 330 -141 129 0 241 48 330 141 135 142 168 340 86 515 -34 73
-115 164 -179 201 -106 63 -259 80 -374 44z"/>
<path d="M11225 4241 c-62 -28 -115 -104 -115 -166 0 -60 60 -148 117 -171 91
-38 209 10 242 99 25 66 4 164 -46 209 -28 25 -88 48 -125 48 -18 0 -51 -9
-73 -19z"/>
<path d="M0 4046 l0 -183 75 -6 c163 -14 322 -92 445 -216 87 -89 131 -159
173 -274 26 -70 31 -100 35 -208 3 -105 1 -139 -16 -207 -78 -308 -331 -526
-649 -558 l-63 -7 0 -185 0 -185 93 6 c602 42 1073 605 1009 1208 -16 149 -45
247 -112 384 -130 267 -344 457 -627 558 -91 33 -217 57 -299 57 l-64 0 0
-184z"/>
<path d="M10130 4149 c-258 -36 -437 -282 -391 -534 45 -245 280 -415 523
-377 292 45 469 351 361 625 -77 197 -283 316 -493 286z"/>
<path d="M4202 4032 c-172 -62 -229 -282 -109 -418 50 -56 105 -85 178 -91
105 -10 196 38 248 129 39 67 47 132 27 200 -44 152 -198 232 -344 180z"/>
<path d="M7720 4039 c-82 -14 -177 -65 -241 -128 -180 -181 -181 -471 -2 -650
292 -291 787 -88 787 324 0 288 -258 503 -544 454z"/>
<path d="M9362 3755 c-38 -17 -66 -71 -56 -110 11 -43 52 -75 96 -75 108 0
137 154 36 189 -38 13 -35 13 -76 -4z"/>
<path d="M2103 3670 c-49 -11 -119 -57 -149 -95 -86 -113 -69 -276 39 -371 54
-47 102 -64 184 -64 154 0 276 139 260 295 -16 161 -176 273 -334 235z m120
-81 c157 -43 183 -262 41 -345 -38 -23 -53 -26 -108 -22 -75 5 -124 36 -156
98 -50 98 -8 213 95 261 46 21 75 23 128 8z"/>
<path d="M11915 3527 c-86 -22 -147 -58 -216 -126 -121 -121 -165 -277 -124
-436 41 -157 150 -273 306 -325 54 -19 80 -21 165 -18 87 4 110 9 168 36 94
44 177 126 224 221 37 74 37 76 37 195 0 144 -18 198 -92 291 -88 108 -200
164 -338 171 -46 2 -102 -2 -130 -9z"/>
<path d="M10985 3494 c-275 -88 -360 -429 -158 -635 184 -189 502 -133 616
109 29 61 32 76 32 162 0 82 -4 103 -27 152 -37 79 -107 152 -184 189 -78 39
-199 49 -279 23z m230 -132 c82 -42 134 -119 142 -212 11 -112 -43 -207 -145
-257 -109 -53 -226 -30 -311 62 -123 134 -68 354 105 420 53 20 157 14 209
-13z"/>
<path d="M1471 3476 c-44 -25 -65 -92 -41 -137 13 -24 61 -49 94 -49 14 0 40
13 58 29 86 77 -10 213 -111 157z"/>
<path d="M6954 3440 c-65 -26 -84 -112 -35 -161 49 -49 125 -38 157 23 40 78
-42 171 -122 138z"/>
<path d="M8935 3439 c-221 -28 -446 -136 -613 -293 -445 -420 -466 -1121 -46
-1565 342 -363 873 -453 1316 -225 370 191 598 567 598 984 0 669 -587 1183
-1255 1099z m327 -388 c259 -66 463 -269 534 -531 24 -89 24 -272 0 -360 -112
-411 -520 -641 -926 -524 -109 31 -209 93 -300 184 -96 96 -148 178 -187 295
-25 72 -27 94 -27 225 0 131 2 153 27 225 80 240 272 420 517 486 92 25 264
25 362 0z"/>
<path d="M2598 3101 c-280 -90 -406 -401 -267 -662 39 -72 128 -158 202 -193
177 -84 372 -54 516 80 163 151 194 408 71 589 -37 54 -118 129 -166 153 -106
54 -249 67 -356 33z"/>
<path d="M6695 3109 c-210 -32 -395 -168 -485 -354 -91 -190 -91 -385 2 -575
33 -67 58 -101 122 -165 151 -150 342 -215 542 -185 264 40 472 225 540 481
22 84 22 234 -1 319 -83 316 -402 528 -720 479z m281 -248 c87 -44 162 -119
206 -208 32 -65 33 -73 33 -183 0 -111 -1 -118 -34 -185 -110 -223 -365 -310
-587 -200 -166 82 -266 272 -235 447 22 126 102 249 200 306 86 50 137 63 247
60 91 -3 107 -7 170 -37z"/>
<path d="M4939 2957 c-96 -27 -184 -99 -229 -186 -11 -22 -25 -71 -32 -109
-33 -195 105 -384 299 -410 205 -27 376 96 413 296 21 118 -16 230 -106 319
-87 84 -231 122 -345 90z"/>
<path d="M3545 2906 c-60 -28 -127 -98 -146 -152 -18 -52 -16 -150 4 -195 21
-50 82 -116 131 -142 32 -17 58 -22 121 -22 94 0 140 20 199 85 50 56 69 103
70 175 0 79 -18 129 -68 183 -55 60 -124 92 -201 92 -42 0 -75 -7 -110 -24z
m183 -71 c190 -80 133 -365 -73 -365 -88 0 -162 61 -185 151 -37 146 116 273
258 214z"/>
<path d="M1879 2841 c-49 -49 -38 -125 23 -157 68 -35 138 11 138 91 0 86
-100 127 -161 66z"/>
<path d="M10582 2699 c-123 -63 -135 -241 -21 -316 118 -78 273 -4 287 137 13
140 -140 244 -266 179z"/>
<path d="M7731 2686 c-90 -50 -50 -186 55 -186 35 0 94 59 94 94 0 80 -80 130
-149 92z"/>
<path d="M12773 2668 c-11 -13 -23 -34 -26 -47 -7 -28 12 -80 36 -100 16 -12
17 -6 17 78 0 50 -1 91 -3 91 -2 0 -13 -10 -24 -22z"/>
<path d="M1276 2579 c-36 -43 -35 -91 3 -130 32 -31 84 -39 123 -18 32 17 51
74 38 115 -15 44 -45 64 -96 64 -35 0 -47 -5 -68 -31z"/>
<path d="M12152 2511 c-171 -59 -229 -270 -116 -418 82 -107 260 -123 374 -33
85 67 117 213 69 315 -28 60 -99 121 -162 140 -65 19 -100 19 -165 -4z"/>
<path d="M1728 2441 c-31 -10 -72 -28 -91 -40 -52 -32 -116 -106 -145 -169
-24 -50 -27 -70 -27 -157 0 -93 2 -105 32 -166 40 -81 102 -140 191 -182 56
-26 78 -31 147 -31 168 -1 306 94 365 251 32 85 25 215 -15 296 -35 71 -117
150 -191 184 -75 34 -187 41 -266 14z m228 -129 c48 -24 110 -91 130 -138 17
-41 18 -133 2 -188 -18 -61 -101 -140 -168 -160 -66 -20 -93 -20 -156 -1 -178
53 -244 281 -121 421 38 43 75 68 127 85 41 14 142 3 186 -19z"/>
<path d="M11198 2431 c-338 -108 -437 -535 -178 -774 184 -171 446 -171 630 0
186 172 194 463 18 649 -62 65 -115 99 -199 125 -78 24 -194 24 -271 0z"/>
<path d="M7633 2306 c-46 -21 -68 -69 -54 -117 22 -72 108 -94 162 -40 39 40
40 89 2 130 -34 37 -68 45 -110 27z"/>
<path d="M4175 2255 c-80 -29 -135 -123 -120 -204 26 -142 203 -202 309 -103
58 55 72 142 35 219 -37 77 -142 118 -224 88z"/>
<path d="M2640 2013 c-55 -20 -81 -82 -55 -136 30 -63 107 -77 156 -28 33 33
38 75 14 120 -19 38 -75 59 -115 44z"/>
<path d="M951 1992 c-57 -28 -94 -83 -99 -146 -14 -168 177 -265 302 -155 127
111 48 319 -121 319 -26 0 -63 -8 -82 -18z"/>
<path d="M10433 1935 c-34 -24 -47 -76 -29 -118 17 -42 45 -59 94 -59 48 0 92
47 92 98 0 74 -96 122 -157 79z"/>
<path d="M2984 1785 c-104 -62 -120 -199 -34 -285 87 -87 235 -67 290 40 22
44 27 128 9 163 -17 32 -60 77 -91 93 -44 23 -126 18 -174 -11z"/>
<path d="M5185 1784 c-113 -28 -202 -81 -295 -174 -94 -94 -147 -184 -176
-299 -25 -98 -16 -274 18 -369 97 -269 359 -445 643 -429 165 9 309 73 424
187 74 74 121 151 157 255 38 110 41 272 6 385 -63 202 -225 368 -422 432 -86
27 -269 34 -355 12z m288 -214 c73 -23 167 -87 210 -143 42 -55 77 -139 89
-211 29 -173 -71 -365 -232 -446 -222 -112 -485 -20 -593 207 -30 64 -32 75
-32 178 0 103 2 114 32 178 96 203 316 302 526 237z"/>
<path d="M1389 1732 c-52 -46 -40 -125 23 -158 26 -13 38 -14 69 -5 47 14 69
44 69 94 0 29 -7 46 -29 68 -40 39 -89 40 -132 1z"/>
<path d="M248 1707 c-127 -36 -205 -147 -196 -280 10 -148 120 -251 268 -250
115 1 218 74 254 180 69 203 -121 407 -326 350z m162 -96 c19 -10 49 -37 65
-60 26 -37 30 -52 30 -106 0 -54 -4 -69 -30 -106 -39 -55 -94 -84 -161 -83
-62 1 -104 23 -148 77 -28 35 -31 45 -31 111 0 64 3 77 28 109 64 84 154 105
247 58z"/>
<path d="M12448 1680 c-54 -16 -97 -51 -118 -96 -60 -123 27 -264 163 -264
169 0 249 208 122 319 -50 44 -110 58 -167 41z"/>
<path d="M3643 1652 c-135 -48 -227 -157 -253 -300 -29 -164 62 -337 218 -410
51 -24 69 -27 162 -27 86 1 114 5 153 23 72 32 159 121 193 195 26 55 29 73
29 157 0 82 -4 103 -27 152 -37 79 -107 152 -186 190 -83 41 -206 50 -289 20z
m209 -114 c55 -16 126 -83 154 -143 62 -131 -4 -293 -141 -351 -54 -22 -151
-18 -211 10 -99 46 -164 162 -149 264 25 169 183 269 347 220z"/>
<path d="M6312 1553 c-49 -24 -75 -68 -80 -132 -3 -46 0 -62 20 -90 50 -73
116 -96 193 -66 67 25 100 73 100 146 0 65 -18 98 -75 137 -40 27 -109 29
-158 5z m149 -36 c40 -27 66 -89 55 -132 -4 -15 -22 -43 -40 -61 -87 -87 -224
-24 -213 99 9 100 114 151 198 94z"/>
<path d="M10535 1515 c-98 -36 -170 -141 -169 -245 0 -30 6 -73 13 -94 17 -48
82 -121 132 -146 130 -67 300 -5 359 132 18 43 22 65 18 123 -3 38 -12 84 -21
102 -22 43 -80 97 -125 119 -48 24 -155 28 -207 9z"/>
<path d="M7823 1495 c-39 -17 -53 -42 -53 -93 0 -33 6 -45 31 -66 19 -17 43
-26 64 -26 21 0 45 9 64 26 25 21 31 33 31 66 0 52 -14 77 -55 94 -41 17 -42
17 -82 -1z"/>
<path d="M1607 1429 c-686 -76 -1232 -647 -1274 -1331 l-6 -98 245 0 245 0 6
82 c45 607 667 1012 1250 814 350 -119 610 -451 634 -808 l6 -88 245 0 245 0
-6 102 c-20 347 -162 654 -421 913 -170 169 -342 277 -556 349 -180 60 -425
86 -613 65z"/>
<path d="M7200 1427 c-206 -46 -341 -246 -300 -444 65 -312 446 -421 659 -188
70 77 95 146 95 260 1 77 -3 98 -26 148 -34 72 -72 119 -133 163 -84 59 -197
82 -295 61z m198 -143 c94 -46 150 -150 139 -258 -13 -128 -109 -222 -237
-233 -238 -22 -379 259 -218 434 88 95 198 115 316 57z"/>
<path d="M12044 1195 c-406 -63 -748 -349 -880 -739 -41 -120 -61 -272 -56
-413 l2 -43 184 0 183 0 5 123 c4 97 11 138 32 202 142 419 604 624 1004 444
84 -37 178 -106 236 -170 l46 -51 0 249 0 250 -82 41 c-216 106 -445 143 -674
107z"/>
<path d="M8321 1120 c-90 -21 -154 -121 -137 -214 8 -40 41 -92 77 -119 30
-22 101 -33 153 -23 71 13 135 98 136 178 0 117 -113 205 -229 178z"/>
<path d="M9443 1102 c-100 -36 -171 -101 -216 -199 -18 -39 -22 -66 -22 -143
0 -82 4 -103 27 -152 34 -73 103 -142 176 -176 49 -23 70 -27 152 -27 82 0
103 4 150 26 82 39 135 90 172 167 30 61 33 74 33 162 0 82 -4 103 -27 152
-34 73 -104 143 -176 176 -76 35 -194 41 -269 14z"/>
<path d="M0 560 c0 -265 3 -340 13 -340 25 0 116 61 150 101 67 78 82 121 82
239 0 118 -14 161 -81 239 -35 40 -125 101 -151 101 -10 0 -13 -75 -13 -340z"/>
<path d="M6405 887 c-141 -47 -234 -171 -243 -323 -7 -134 41 -239 144 -313
149 -107 349 -88 474 45 74 78 93 128 94 244 1 83 -2 102 -25 150 -37 78 -88
131 -161 170 -56 30 -73 34 -153 37 -55 2 -106 -2 -130 -10z"/>
<path d="M4128 796 c-26 -7 -55 -19 -65 -26 -88 -67 -123 -133 -123 -230 1
-152 113 -260 269 -260 181 1 304 189 238 362 -25 64 -99 132 -168 152 -62 19
-88 19 -151 2z"/>
<path d="M8170 483 c-290 -31 -572 -184 -750 -408 -27 -35 -50 -66 -50 -69 0
-3 122 -6 270 -6 149 0 270 4 270 9 0 10 121 65 179 81 76 20 189 28 272 19
93 -11 226 -52 276 -86 33 -23 38 -23 299 -23 l266 0 -31 43 c-50 68 -171 186
-246 239 -215 153 -500 228 -755 201z"/>
<path d="M5803 368 c-41 -11 -63 -42 -63 -92 0 -86 92 -127 159 -70 26 21 31
33 31 69 0 72 -55 112 -127 93z"/>
<path d="M10265 367 c-147 -49 -255 -175 -272 -316 l-6 -51 60 0 60 0 6 39
c16 123 114 210 245 219 140 10 244 -77 276 -230 6 -27 9 -28 62 -28 l56 0 -4
53 c-10 116 -98 237 -213 292 -49 23 -76 29 -145 32 -52 2 -100 -2 -125 -10z"/>
<path d="M3629 301 c-84 -84 33 -216 128 -145 76 57 38 174 -57 174 -33 0 -48
-6 -71 -29z"/>
<path d="M5043 195 c-89 -20 -174 -68 -235 -134 l-53 -56 379 -3 c209 -1 381
0 384 2 9 10 -59 85 -110 119 -105 72 -244 100 -365 72z"/>
</g>
</svg>
